<svg width="38" height="37" viewBox="0 0 38 37" fill="none" xmlns="http://www.w3.org/2000/svg">
<path d="M6.48173 37H31.5394C35.8538 37 38 34.9103 38 30.7703V6.22969C38 2.08971 35.8538 0 31.5394 0H6.48173C2.18846 0 0 2.06999 0 6.22969V30.7712C0 34.9309 2.18846 37 6.48173 37ZM6.54337 33.7655C4.47996 33.7655 3.32365 32.7005 3.32365 30.61V6.39262C3.32365 4.30205 4.47996 3.23704 6.54337 3.23704H31.4778C33.5209 3.23704 34.6772 4.30205 34.6772 6.39262V30.6082C34.6772 32.6988 33.5209 33.7638 31.4778 33.7638L6.54337 33.7655Z" fill="#8052EC"/>
</svg>
