<svg width="48" height="48" viewBox="0 0 48 48" fill="none" xmlns="http://www.w3.org/2000/svg">
<path d="M11.8157 42.4921H36.204C40.4031 42.4921 42.492 40.4032 42.492 36.2649V11.7343C42.492 7.59606 40.4031 5.5072 36.204 5.5072H11.8157C7.63714 5.5072 5.50714 7.57634 5.50714 11.7343V36.2658C5.50714 40.4238 7.63714 42.4921 11.8157 42.4921ZM11.8757 39.2589C9.86743 39.2589 8.742 38.1943 8.742 36.1046V11.8972C8.742 9.80749 9.86743 8.74292 11.8757 8.74292H36.144C38.1326 8.74292 39.258 9.80749 39.258 11.8972V36.1029C39.258 38.1926 38.1326 39.2572 36.144 39.2572L11.8757 39.2589ZM21.4989 34.0158C22.1617 34.0158 22.704 33.6943 23.1257 33.0515L33.0514 17.4412C33.2914 17.0589 33.5331 16.5969 33.5331 16.1555C33.5331 15.2315 32.73 14.6486 31.8857 14.6486C31.3431 14.6486 30.8409 14.9701 30.48 15.5726L21.42 30.0969L16.7383 24.0506C16.2969 23.4678 15.8143 23.2466 15.2726 23.2466C14.388 23.2466 13.6851 23.9495 13.6851 24.8538C13.6851 25.2961 13.8651 25.7375 14.1669 26.1198L19.7726 33.0703C20.3143 33.7132 20.8363 34.0149 21.4997 34.0149" fill="#8052EC"/>
</svg>
