<svg width="21" height="20" viewBox="0 0 21 20" fill="none" xmlns="http://www.w3.org/2000/svg">
<path d="M8.43065 19.5202C9.1117 19.5202 9.66887 19.1987 10.1022 18.5555L20.3003 2.93886C20.5469 2.55641 20.7952 2.09422 20.7952 1.65262C20.7952 0.728237 19.9701 0.145142 19.1026 0.145142C18.5451 0.145142 18.0291 0.466701 17.6583 1.06952L8.34962 15.5998L3.53941 9.55099C3.08587 8.96789 2.59005 8.74666 2.03347 8.74666C1.12462 8.74666 0.402466 9.4498 0.402466 10.3545C0.402466 10.7969 0.587406 11.2385 0.897402 11.621L6.65698 18.5744C7.21356 19.2175 7.74989 19.5194 8.43153 19.5194" fill="#8052EC"/>
</svg>
