<svg width="39" height="39" viewBox="0 0 39 39" fill="none" xmlns="http://www.w3.org/2000/svg">
<path d="M10.5668 26.6721H17.7334M10.5668 17.7173H24.9001M15.9418 37.4167H17.7334M11.4554 37.4167C9.35919 37.3719 7.92586 37.2375 6.53552 36.8344C4.65427 36.3417 3.28365 34.6844 2.88052 32.357C2.3699 30.164 2.54907 24.7478 2.50427 18.2996C2.50786 13.2991 2.28032 8.4956 3.08657 5.7651C3.57927 4.86927 3.9824 1.60126 10.6564 1.64426C11.7762 1.60126 23.6459 1.51168 25.5272 1.69085C31.798 1.82522 32.4251 5.04843 32.7834 8.09247C33.011 10.3321 32.9626 13.9118 32.9626 17.7173M10.5668 1.60126C11.1043 4.51093 11.0595 6.39218 13.0303 6.83831C13.8814 6.97268 15.8253 6.9691 17.9126 6.97268C19.7759 6.97627 21.6751 6.99418 22.5262 6.79352C24.6314 6.3026 24.4074 3.70468 24.9449 1.60126M30.7499 23.7624C28.2864 26.2707 23.542 30.7463 23.542 31.0598C23.1604 31.592 22.8254 32.6723 22.6032 34.1953C22.3219 35.6053 21.9851 36.8344 22.3792 37.1927C22.7734 37.5511 24.2551 37.2501 25.8246 36.924C27.0788 36.7896 28.2434 36.3417 28.8239 35.8956C29.6749 35.1431 35.4494 29.313 36.1195 28.5533C36.6122 27.8814 36.657 26.6273 36.227 25.8658C35.9869 25.3283 34.464 23.895 33.9713 23.4936C33.4759 23.1881 32.8956 23.0493 32.3155 23.0977C31.7354 23.1461 31.1879 23.379 30.7499 23.7624Z" stroke="#8052EC" stroke-width="3" stroke-linecap="round" stroke-linejoin="round"/>
</svg>
