<svg width="84" height="84" viewBox="0 0 84 84" fill="none" xmlns="http://www.w3.org/2000/svg">
<path d="M15.75 0C11.5728 0 7.56677 1.65937 4.61307 4.61307C1.65937 7.56677 0 11.5728 0 15.75V57.75C0 61.9272 1.65937 65.9332 4.61307 68.8869C7.56677 71.8406 11.5728 73.5 15.75 73.5H34.65C33.7926 71.8215 33.1015 70.0631 32.5867 68.25H15.75C12.9652 68.25 10.2945 67.1438 8.32538 65.1746C6.35625 63.2055 5.25 60.5348 5.25 57.75V15.75C5.25 12.9652 6.35625 10.2945 8.32538 8.32538C10.2945 6.35625 12.9652 5.25 15.75 5.25H57.75C60.5348 5.25 63.2055 6.35625 65.1746 8.32538C67.1438 10.2945 68.25 12.9652 68.25 15.75V32.5867C70.084 33.1082 71.834 33.796 73.5 34.65V15.75C73.5 11.5728 71.8406 7.56677 68.8869 4.61307C65.9332 1.65937 61.9272 0 57.75 0H15.75ZM33.3585 21.546C33.8514 21.0531 34.1283 20.3846 34.1283 19.6875C34.1283 18.9904 33.8514 18.3219 33.3585 17.829C32.8656 17.3361 32.1971 17.0592 31.5 17.0592C30.8029 17.0592 30.1344 17.3361 29.6415 17.829L22.2285 25.242L20.1442 23.3415C19.6264 22.8989 18.9567 22.6749 18.2768 22.7169C17.5968 22.759 16.9598 23.0637 16.5004 23.5667C16.041 24.0698 15.7951 24.7317 15.8148 25.4127C15.8345 26.0936 16.1181 26.7403 16.6058 27.216L20.5433 30.8123C21.0422 31.2665 21.6968 31.5112 22.3713 31.4955C23.0458 31.4799 23.6884 31.2051 24.1658 30.7282L33.3585 21.546ZM33.3585 44.079C33.603 44.3228 33.7969 44.6125 33.9292 44.9314C34.0616 45.2503 34.1297 45.5922 34.1297 45.9375C34.1297 46.2828 34.0616 46.6247 33.9292 46.9436C33.7969 47.2625 33.603 47.5522 33.3585 47.796L24.171 56.9835C23.6928 57.4612 23.0487 57.736 22.3729 57.7506C21.6972 57.7653 21.0418 57.5187 20.5433 57.0623L16.6058 53.466C16.1181 52.9903 15.8345 52.3436 15.8148 51.6627C15.7951 50.9817 16.041 50.3198 16.5004 49.8167C16.9598 49.3137 17.5968 49.009 18.2768 48.9669C18.9567 48.9249 19.6264 49.1489 20.1442 49.5915L22.2285 51.4973L29.6415 44.079C29.8853 43.8345 30.175 43.6406 30.4939 43.5083C30.8128 43.3759 31.1547 43.3078 31.5 43.3078C31.8453 43.3078 32.1872 43.3759 32.5061 43.5083C32.825 43.6406 33.1147 43.8345 33.3585 44.079ZM39.375 23.625C39.375 22.9288 39.6516 22.2611 40.1438 21.7688C40.6361 21.2766 41.3038 21 42 21H55.125C55.8212 21 56.4889 21.2766 56.9812 21.7688C57.4734 22.2611 57.75 22.9288 57.75 23.625C57.75 24.3212 57.4734 24.9889 56.9812 25.4812C56.4889 25.9734 55.8212 26.25 55.125 26.25H42C41.3038 26.25 40.6361 25.9734 40.1438 25.4812C39.6516 24.9889 39.375 24.3212 39.375 23.625ZM84 60.375C84 66.6407 81.5109 72.6498 77.0804 77.0804C72.6498 81.5109 66.6407 84 60.375 84C54.1093 84 48.1002 81.5109 43.6696 77.0804C39.2391 72.6498 36.75 66.6407 36.75 60.375C36.75 54.1093 39.2391 48.1002 43.6696 43.6696C48.1002 39.2391 54.1093 36.75 60.375 36.75C66.6407 36.75 72.6498 39.2391 77.0804 43.6696C81.5109 48.1002 84 54.1093 84 60.375ZM63 49.875C63 49.1788 62.7234 48.5111 62.2312 48.0188C61.7389 47.5266 61.0712 47.25 60.375 47.25C59.6788 47.25 59.0111 47.5266 58.5188 48.0188C58.0266 48.5111 57.75 49.1788 57.75 49.875V57.75H49.875C49.1788 57.75 48.5111 58.0266 48.0188 58.5188C47.5266 59.0111 47.25 59.6788 47.25 60.375C47.25 61.0712 47.5266 61.7389 48.0188 62.2312C48.5111 62.7234 49.1788 63 49.875 63H57.75V70.875C57.75 71.5712 58.0266 72.2389 58.5188 72.7312C59.0111 73.2234 59.6788 73.5 60.375 73.5C61.0712 73.5 61.7389 73.2234 62.2312 72.7312C62.7234 72.2389 63 71.5712 63 70.875V63H70.875C71.5712 63 72.2389 62.7234 72.7312 62.2312C73.2234 61.7389 73.5 61.0712 73.5 60.375C73.5 59.6788 73.2234 59.0111 72.7312 58.5188C72.2389 58.0266 71.5712 57.75 70.875 57.75H63V49.875Z" fill="#8052EC"/>
</svg>
