<svg width="32" height="39" viewBox="0 0 32 39" fill="none" xmlns="http://www.w3.org/2000/svg">
<path d="M2 9.77778H30M12 15.6111V31.1667M20 15.6111V31.1667M12 2H20C20.5304 2 21.0391 2.20486 21.4142 2.56951C21.7893 2.93417 22 3.42875 22 3.94444V9.77778H10V3.94444C10 3.42875 10.2107 2.93417 10.5858 2.56951C10.9609 2.20486 11.4696 2 12 2ZM4 9.77778H28V35.0556C28 35.5713 27.7893 36.0658 27.4142 36.4305C27.0391 36.7951 26.5304 37 26 37H6C5.46957 37 4.96086 36.7951 4.58579 36.4305C4.21071 36.0658 4 35.5713 4 35.0556V9.77778Z" stroke="#8052EC" stroke-width="3" stroke-linecap="round" stroke-linejoin="round"/>
</svg>
